<svg width="28" height="29" viewBox="0 0 28 29" fill="none" xmlns="http://www.w3.org/2000/svg">
<g id="system-uicons:cart">
<g id="Group">
<path id="Vector" d="M6.66665 8.9762H23.3333L21.2186 16.6405C21.0593 17.2174 20.7229 17.7249 20.2603 18.0862C19.7977 18.4475 19.234 18.6429 18.6546 18.6429H9.72131C9.0646 18.6433 8.43084 18.3926 7.94147 17.9391C7.45211 17.4855 7.14155 16.8608 7.06931 16.1848L5.99998 6.21429H3.33331" stroke="black" stroke-linecap="round" stroke-linejoin="round"/>
<g id="Group_2">
<path id="Vector_2" d="M9.33333 23.4762C10.0697 23.4762 10.6667 22.8579 10.6667 22.0952C10.6667 21.3326 10.0697 20.7143 9.33333 20.7143C8.59695 20.7143 8 21.3326 8 22.0952C8 22.8579 8.59695 23.4762 9.33333 23.4762Z" fill="black"/>
<path id="Vector_3" d="M20 23.4762C20.7364 23.4762 21.3334 22.8579 21.3334 22.0952C21.3334 21.3326 20.7364 20.7143 20 20.7143C19.2636 20.7143 18.6667 21.3326 18.6667 22.0952C18.6667 22.8579 19.2636 23.4762 20 23.4762Z" fill="black"/>
</g>
</g>
</g>
</svg>
