<svg width="28" height="28" viewBox="0 0 28 28" fill="none" xmlns="http://www.w3.org/2000/svg">
<g id="fluent:mail-28-regular">
<path id="Vector" d="M5.75403 4C4.75947 4 3.80564 4.39509 3.10238 5.09835C2.39912 5.80161 2.00403 6.75544 2.00403 7.75V19.25C2.00403 20.2446 2.39912 21.1984 3.10238 21.9017C3.80564 22.6049 4.75947 23 5.75403 23H22.25C23.2446 23 24.1984 22.6049 24.9017 21.9017C25.6049 21.1984 26 20.2446 26 19.25V7.75C26 6.75544 25.6049 5.80161 24.9017 5.09835C24.1984 4.39509 23.2446 4 22.25 4H5.75403ZM3.50403 7.75C3.50403 7.15326 3.74108 6.58097 4.16304 6.15901C4.58499 5.73705 5.15729 5.5 5.75403 5.5H22.25C22.8468 5.5 23.4191 5.73705 23.841 6.15901C24.263 6.58097 24.5 7.15326 24.5 7.75V8.529L14 13.907L3.50403 8.531V7.75ZM3.50403 10.217L13.658 15.417C13.7639 15.4712 13.8811 15.4995 14 15.4995C14.119 15.4995 14.2362 15.4712 14.342 15.417L24.5 10.215V19.251C24.5 19.8477 24.263 20.42 23.841 20.842C23.4191 21.2639 22.8468 21.501 22.25 21.501H5.75503C5.15829 21.501 4.58599 21.2639 4.16404 20.842C3.74208 20.42 3.50503 19.8477 3.50503 19.251L3.50403 10.217Z" fill="black"/>
</g>
</svg>
