<svg width="14" height="14" viewBox="0 0 14 14" fill="none" xmlns="http://www.w3.org/2000/svg">
<path id="Vector" d="M12.8532 11.6256C13.0293 11.79 13.1283 12.0129 13.1283 12.2454C13.1283 12.4778 13.0293 12.7008 12.8532 12.8652C12.6771 13.0295 12.4382 13.1219 12.1891 13.1219C11.9401 13.1219 11.7012 13.0295 11.5251 12.8652L6.56491 8.23423L1.60319 12.8637C1.42707 13.0281 1.1882 13.1204 0.939126 13.1204C0.690054 13.1204 0.451184 13.0281 0.275064 12.8637C0.0989435 12.6993 2.6244e-09 12.4764 0 12.2439C-2.6244e-09 12.0114 0.0989435 11.7885 0.275064 11.6241L5.23678 6.99465L0.276626 2.36371C0.100506 2.19933 0.00156253 1.97638 0.00156254 1.74392C0.00156254 1.51145 0.100506 1.2885 0.276626 1.12412C0.452746 0.959745 0.691617 0.867398 0.940688 0.867398C1.18976 0.867398 1.42863 0.959745 1.60475 1.12412L6.56491 5.75506L11.5266 1.12339C11.7027 0.959016 11.9416 0.866669 12.1907 0.866669C12.4398 0.866669 12.6786 0.959016 12.8547 1.12339C13.0309 1.28777 13.1298 1.51072 13.1298 1.74319C13.1298 1.97565 13.0309 2.1986 12.8547 2.36298L7.89303 6.99465L12.8532 11.6256Z" fill="black"/>
</svg>
